<svg xmlns="http://www.w3.org/2000/svg" width="512" height="512" xml:space="preserve"><circle fill="#F6BB42" cx="439.869" cy="92.121" r="67.952"/><path fill="#656D78" d="M228.02 403.895s7.994 15.988 27.98 15.988c19.985 0 27.979-15.988 27.979-15.988H228.02z"/><path fill="#FFF" d="M244.008 403.895H228.02s7.994 15.988 27.98 15.988c2.95 0 5.559-.422 7.994-1.007-14.099-3.427-19.986-14.981-19.986-14.981z" opacity=".3"/><path d="M267.991 403.895h15.988s-7.994 15.988-27.979 15.988c-2.951 0-5.559-.422-7.995-1.007 14.099-3.427 19.986-14.981 19.986-14.981z" opacity=".2"/><path fill="#AAB2BD" d="m315.957 387.906-15.989 15.989h-87.937l-15.989-15.989v-47.967h119.915z"/><path fill="#FFF" d="M212.031 339.939h-15.989v47.967l15.989 15.989h15.989l-15.989-15.989z" opacity=".4"/><path d="M299.968 339.939h15.989v47.967l-15.989 15.989h-15.989l15.989-15.989z" opacity=".2"/><path fill="#FFCE54" d="M379.911 216.032c0-68.436-55.476-123.911-123.911-123.911s-123.912 55.476-123.912 123.911c0 46.678 25.833 87.285 63.955 108.419v15.488h119.93v-15.504c38.113-21.125 63.938-61.733 63.938-108.403z"/><path d="M363.923 216.032c0-65.738-51.229-119.368-115.917-123.509 2.654-.168 5.293-.402 7.995-.402 68.436 0 123.911 55.476 123.911 123.911 0 46.678-25.841 87.285-63.954 108.419-.001 0 47.965-40.471 47.965-108.419z" opacity=".2"/><path fill="#FFF" d="M148.077 216.032c0-65.738 51.229-119.368 115.917-123.509-2.654-.168-5.293-.402-7.994-.402-68.436 0-123.912 55.476-123.912 123.911 0 46.678 25.841 87.285 63.955 108.419-.001 0-47.966-40.471-47.966-108.419z" opacity=".5"/><path fill="#FFF" d="M275.985 291.975 256 275.985l-19.986 15.99v39.97h39.971z" opacity=".6"/><circle fill="#FFF" cx="220.025" cy="220.029" r="15.988" opacity=".6"/><path fill="#FFF" d="M307.963 220.029c0 8.83-7.167 15.989-15.989 15.989-8.837 0-15.988-7.159-15.988-15.989 0-8.829 7.151-15.988 15.988-15.988 8.822 0 15.989 7.159 15.989 15.988z" opacity=".6"/><path d="M196.042 331.945h119.915v7.994H196.042z" opacity=".2"/><g><circle fill="#FFCE54" cx="439.869" cy="72.131" r="67.952"/></g><g opacity=".5"><path fill="#FFF" d="M387.905 72.131c0-34.818 26.2-63.478 59.957-67.439-2.623-.309-5.285-.512-7.994-.512-37.527 0-67.951 30.424-67.951 67.951 0 37.528 30.424 67.952 67.951 67.952 2.709 0 5.371-.203 7.994-.512-33.757-3.962-59.957-32.621-59.957-67.44z"/></g><g opacity=".2"><path d="M491.831 72.131c0 34.819-26.199 63.479-59.957 67.44 2.623.309 5.285.512 7.994.512 37.528 0 67.952-30.424 67.952-67.952 0-37.527-30.424-67.951-67.952-67.951-2.709 0-5.371.203-7.994.512 33.758 3.961 59.957 32.621 59.957 67.439z"/></g><g><path fill="#F6BB42" d="M140.083 439.869c0 37.535-30.423 67.951-67.952 67.951-37.528 0-67.951-30.416-67.951-67.951 0-37.521 30.423-67.952 67.951-67.952 37.528 0 67.952 30.432 67.952 67.952z"/></g><g><circle fill="#FFCE54" cx="72.131" cy="419.883" r="67.951"/></g><g opacity=".5"><path fill="#FFF" d="M20.168 419.883c0-34.818 26.2-63.479 59.957-67.436-2.623-.313-5.285-.516-7.994-.516-37.528 0-67.951 30.424-67.951 67.951 0 37.528 30.423 67.951 67.951 67.951 2.709 0 5.371-.202 7.994-.515-33.757-3.957-59.957-32.616-59.957-67.435z"/></g><g opacity=".2"><path d="M124.094 419.883c0 34.819-26.2 63.479-59.957 67.437 2.623.313 5.285.515 7.994.515 37.528 0 67.952-30.423 67.952-67.951 0-37.527-30.423-67.951-67.952-67.951-2.709 0-5.371.203-7.994.516 33.757 3.955 59.957 32.615 59.957 67.434z"/></g><g><path fill="#3A3847" d="M196.035 328.542a3.9 3.9 0 0 1-1.928-.5c-40.713-22.476-66.008-65.398-66.008-112.014 0-70.527 57.381-127.908 127.909-127.908a3.994 3.994 0 0 1 3.997 3.997 3.995 3.995 0 0 1-3.997 3.997c-66.125 0-119.915 53.793-119.915 119.914 0 43.703 23.71 83.94 61.87 105.019a3.993 3.993 0 0 1 1.569 5.434 4 4 0 0 1-3.497 2.061z"/><path fill="#3A3847" d="M315.973 328.542a3.998 3.998 0 0 1-3.497-2.062 3.994 3.994 0 0 1 1.568-5.434c38.16-21.078 61.87-61.315 61.87-105.019 0-66.121-53.79-119.914-119.906-119.914a3.995 3.995 0 0 1-3.998-3.997 3.995 3.995 0 0 1 3.998-3.997c70.527 0 127.9 57.381 127.9 127.908 0 46.615-25.294 89.538-66.007 112.014a3.893 3.893 0 0 1-1.928.501zM196.05 391.902a3.994 3.994 0 0 1-3.997-3.996v-63.361c0-2.209 1.788-3.997 3.997-3.997s3.997 1.788 3.997 3.997v63.361a3.994 3.994 0 0 1-3.997 3.996z"/><path fill="#3A3847" d="M315.957 391.902a3.994 3.994 0 0 1-3.997-3.996v-63.268a3.994 3.994 0 0 1 3.997-3.997 3.995 3.995 0 0 1 3.997 3.997v63.268a3.994 3.994 0 0 1-3.997 3.996z"/><path fill="#3A3847" d="M315.957 343.938H196.05a3.995 3.995 0 0 1-3.997-3.998 3.994 3.994 0 0 1 3.997-3.996h119.907a3.994 3.994 0 0 1 3.997 3.996 3.996 3.996 0 0 1-3.997 3.998zM299.968 407.892h-87.929a3.995 3.995 0 0 1-2.826-1.171l-15.989-15.988a3.996 3.996 0 1 1 5.652-5.652l14.817 14.817h84.62l14.817-14.817a3.994 3.994 0 0 1 5.652 0 3.994 3.994 0 0 1 0 5.652l-15.989 15.988a3.99 3.99 0 0 1-2.825 1.171zM188.056 367.92a3.996 3.996 0 0 1-.234-7.987l135.895-7.994c2.179-.07 4.091 1.554 4.224 3.755a3.999 3.999 0 0 1-3.755 4.224l-135.896 7.994c-.078.008-.156.008-.234.008zM188.056 383.908a3.995 3.995 0 0 1-3.989-3.763 4 4 0 0 1 3.755-4.224l135.895-7.994c2.179-.156 4.091 1.554 4.224 3.756.133 2.201-1.554 4.09-3.755 4.223L188.29 383.9c-.078.008-.156.008-.234.008z"/><path fill="#3A3847" d="M256.008 423.88c-22.203 0-31.181-17.456-31.556-18.198a3.998 3.998 0 0 1 7.143-3.591c.312.609 7.299 13.795 24.413 13.795 17.136 0 24.115-13.232 24.404-13.795a4.008 4.008 0 0 1 5.371-1.757 3.995 3.995 0 0 1 1.772 5.348c-.374.742-9.353 18.198-31.547 18.198zM236.021 327.948a3.994 3.994 0 0 1-3.997-3.997v-31.977a3.995 3.995 0 0 1 3.997-3.998 3.995 3.995 0 0 1 3.998 3.998v31.977a3.995 3.995 0 0 1-3.998 3.997zM275.985 327.948a3.994 3.994 0 0 1-3.997-3.997v-31.977c0-2.21 1.788-3.998 3.997-3.998s3.997 1.788 3.997 3.998v31.977a3.994 3.994 0 0 1-3.997 3.997z"/><path fill="#3A3847" d="M236.021 295.972a4 4 0 0 1-3.123-1.499 4.003 4.003 0 0 1 .625-5.621l19.986-15.988c1.741-1.375 4.248-1.094 5.621.624a4.002 4.002 0 0 1-.624 5.621l-19.986 15.988a3.983 3.983 0 0 1-2.499.875z"/><path fill="#3A3847" d="M275.985 295.972a3.958 3.958 0 0 1-2.498-.875l-19.978-15.988a4.004 4.004 0 0 1-.625-5.621 4.003 4.003 0 0 1 5.621-.624l19.978 15.988a4.003 4.003 0 0 1 .625 5.621 4 4 0 0 1-3.123 1.499zM236.021 279.982a3.994 3.994 0 0 1-3.997-3.997v-55.96a3.995 3.995 0 0 1 3.997-3.997 3.995 3.995 0 0 1 3.998 3.997v55.96a3.995 3.995 0 0 1-3.998 3.997z"/><path fill="#3A3847" d="M236.021 224.022a3.994 3.994 0 0 1-3.997-3.997c0-6.612-5.379-11.991-11.991-11.991s-11.991 5.379-11.991 11.991a3.994 3.994 0 0 1-3.997 3.997 3.995 3.995 0 0 1-3.998-3.997c0-11.02 8.962-19.985 19.986-19.985s19.986 8.966 19.986 19.985a3.995 3.995 0 0 1-3.998 3.997z"/><path fill="#3A3847" d="M220.033 240.012c-11.023 0-19.986-8.967-19.986-19.986a3.995 3.995 0 0 1 3.998-3.997 3.995 3.995 0 0 1 3.997 3.997c0 6.613 5.379 11.992 11.991 11.992 2.209 0 3.997 1.788 3.997 3.997s-1.788 3.997-3.997 3.997zM275.985 279.982a3.994 3.994 0 0 1-3.997-3.997v-55.96c0-2.209 1.788-3.997 3.997-3.997s3.997 1.788 3.997 3.997v55.96a3.994 3.994 0 0 1-3.997 3.997z"/><path fill="#3A3847" d="M307.963 224.022a3.994 3.994 0 0 1-3.997-3.997c0-6.612-5.379-11.991-11.992-11.991-6.612 0-11.991 5.379-11.991 11.991 0 2.21-1.788 3.997-3.997 3.997s-3.997-1.787-3.997-3.997c0-11.02 8.962-19.985 19.985-19.985s19.986 8.966 19.986 19.985a3.994 3.994 0 0 1-3.997 3.997z"/><path fill="#3A3847" d="M291.974 240.012c-2.209 0-3.997-1.788-3.997-3.998s1.788-3.997 3.997-3.997c6.613 0 11.992-5.379 11.992-11.992a3.994 3.994 0 0 1 3.997-3.997 3.995 3.995 0 0 1 3.997 3.997c0 11.02-8.963 19.987-19.986 19.987zM260.005 240.012h-7.995c-2.209 0-3.997-1.788-3.997-3.998s1.788-3.997 3.997-3.997h7.995c2.209 0 3.997 1.788 3.997 3.997s-1.788 3.998-3.997 3.998z"/><g><path fill="#3A3847" d="M26.944 343.969c-1.632 0-3.162-1-3.755-2.623C13.228 314.084 8.177 285.369 8.177 256 8.177 119.352 119.347 8.177 256 8.177c35.428 0 69.599 7.269 101.56 21.602a3.995 3.995 0 0 1 2.015 5.282c-.897 2.018-3.271 2.908-5.277 2.01-30.932-13.87-64.01-20.9-98.298-20.9C123.758 16.171 16.171 123.758 16.171 256c0 28.433 4.887 56.226 14.528 82.598a4.002 4.002 0 0 1-2.381 5.129 4.042 4.042 0 0 1-1.374.242z"/><path fill="#3A3847" d="M331.938 40.154a4.006 4.006 0 0 1-3.966-3.545 3.996 3.996 0 0 1 3.521-4.422l23.982-2.732c2.131-.285 4.169 1.319 4.427 3.517a3.998 3.998 0 0 1-3.521 4.423l-23.982 2.732a3.763 3.763 0 0 1-.461.027z"/><path fill="#3A3847" d="M355.929 37.422a3.985 3.985 0 0 1-3.193-1.593l-15.988-21.25a3.997 3.997 0 1 1 6.386-4.809l15.988 21.25a3.997 3.997 0 0 1-3.193 6.402z"/></g><g><path fill="#3A3847" d="M256 503.823c-35.444 0-69.615-7.276-101.568-21.618-2.014-.897-2.912-3.271-2.006-5.285a4.006 4.006 0 0 1 5.285-2.006c30.916 13.873 63.986 20.915 98.29 20.915 132.241 0 239.829-107.588 239.829-239.829 0-28.425-4.88-56.206-14.506-82.57a4 4 0 0 1 2.381-5.125 4.004 4.004 0 0 1 5.129 2.385c9.946 27.247 14.99 55.949 14.99 85.311C503.823 392.652 392.652 503.823 256 503.823z"/><path fill="#3A3847" d="M156.063 482.557a3.998 3.998 0 0 1-3.966-3.544 3.984 3.984 0 0 1 3.521-4.419l23.983-2.717c2.155-.281 4.169 1.312 4.426 3.514a3.984 3.984 0 0 1-3.521 4.418l-23.983 2.717a3.074 3.074 0 0 1-.46.031z"/><path fill="#3A3847" d="M172.06 503.823a3.975 3.975 0 0 1-3.193-1.593l-15.989-21.266c-1.327-1.765-.976-4.278.789-5.598 1.78-1.328 4.278-.977 5.598.788l15.989 21.267c1.327 1.764.976 4.277-.789 5.598a4.03 4.03 0 0 1-2.405.804z"/></g><g><path fill="#3A3847" d="M371.917 96.114a3.995 3.995 0 0 1-3.997-3.997V72.131c0-2.209 1.788-3.997 3.997-3.997s3.997 1.788 3.997 3.997v19.986a3.995 3.995 0 0 1-3.997 3.997z"/><path fill="#3A3847" d="M439.868 144.08c-39.675 0-71.948-32.278-71.948-71.949S400.193.183 439.868.183s71.949 32.277 71.949 71.948-32.274 71.949-71.949 71.949zm0-135.903c-35.264 0-63.954 28.69-63.954 63.954 0 35.264 28.69 63.955 63.954 63.955s63.955-28.69 63.955-63.955c0-35.264-28.691-63.954-63.955-63.954z"/><path fill="#3A3847" d="M439.868 164.065c-39.675 0-71.948-32.277-71.948-71.948 0-2.21 1.788-3.997 3.997-3.997s3.997 1.787 3.997 3.997c0 35.264 28.69 63.954 63.954 63.954s63.955-28.69 63.955-63.954a3.994 3.994 0 0 1 3.997-3.997 3.994 3.994 0 0 1 3.997 3.997c0 39.671-32.274 71.948-71.949 71.948z"/><path fill="#3A3847" d="M439.868 100.111a3.995 3.995 0 0 1-3.997-3.997V48.148a3.995 3.995 0 0 1 3.997-3.997 3.995 3.995 0 0 1 3.998 3.997v47.966a3.995 3.995 0 0 1-3.998 3.997zM507.82 96.114a3.994 3.994 0 0 1-3.997-3.997V72.131a3.994 3.994 0 0 1 3.997-3.997 3.995 3.995 0 0 1 3.997 3.997v19.986a3.995 3.995 0 0 1-3.997 3.997zM411.889 158.046a3.994 3.994 0 0 1-3.997-3.997v-19.986a3.994 3.994 0 0 1 3.997-3.997 3.995 3.995 0 0 1 3.997 3.997v19.986a3.994 3.994 0 0 1-3.997 3.997zM475.843 153.761a3.995 3.995 0 0 1-3.997-3.998v-19.986c0-2.209 1.788-3.997 3.997-3.997s3.997 1.788 3.997 3.997v19.986a3.995 3.995 0 0 1-3.997 3.998z"/></g><g><path fill="#3A3847" d="M4.18 443.866a3.994 3.994 0 0 1-3.997-3.997v-19.986a3.994 3.994 0 0 1 3.997-3.997 3.995 3.995 0 0 1 3.997 3.997v19.986a3.995 3.995 0 0 1-3.997 3.997z"/><path fill="#3A3847" d="M72.131 491.832c-39.675 0-71.948-32.274-71.948-71.949s32.273-71.948 71.948-71.948 71.949 32.273 71.949 71.948-32.274 71.949-71.949 71.949zm0-135.903c-35.264 0-63.954 28.69-63.954 63.954s28.69 63.955 63.954 63.955 63.954-28.691 63.954-63.955-28.69-63.954-63.954-63.954z"/><path fill="#3A3847" d="M72.131 511.817c-39.675 0-71.948-32.274-71.948-71.948a3.995 3.995 0 0 1 3.997-3.998 3.995 3.995 0 0 1 3.997 3.998c0 35.264 28.69 63.954 63.954 63.954s63.954-28.69 63.954-63.954c0-2.21 1.788-3.998 3.998-3.998s3.997 1.788 3.997 3.998c0 39.674-32.274 71.948-71.949 71.948z"/><path fill="#3A3847" d="M72.131 447.863a3.995 3.995 0 0 1-3.997-3.997V395.9a3.995 3.995 0 0 1 3.997-3.998 3.995 3.995 0 0 1 3.997 3.998v47.966a3.995 3.995 0 0 1-3.997 3.997zM140.083 443.866a3.996 3.996 0 0 1-3.998-3.997v-19.986c0-2.209 1.788-3.997 3.998-3.997s3.997 1.788 3.997 3.997v19.986a3.995 3.995 0 0 1-3.997 3.997zM44.151 505.806a3.994 3.994 0 0 1-3.997-3.997v-19.985c0-2.21 1.788-3.997 3.997-3.997s3.997 1.787 3.997 3.997v19.985a3.994 3.994 0 0 1-3.997 3.997zM108.105 501.512a3.994 3.994 0 0 1-3.997-3.996V477.53a3.995 3.995 0 0 1 3.997-3.997 3.995 3.995 0 0 1 3.997 3.997v19.986a3.994 3.994 0 0 1-3.997 3.996z"/></g></g></svg>